<svg width="42" height="39" viewBox="0 0 42 39" fill="none" xmlns="http://www.w3.org/2000/svg">
<path d="M40.9123 1.4947C40.5356 1.16932 40.077 0.953227 39.5863 0.869842C39.0956 0.786457 38.5914 0.838955 38.1283 1.02165L2.08204 15.1828C1.53225 15.3988 1.06717 15.787 0.75641 16.2893C0.445649 16.7916 0.305913 17.3811 0.358113 17.9695C0.410313 18.5579 0.651641 19.1135 1.04599 19.5533C1.44033 19.9931 1.96648 20.2933 2.54571 20.4091L12.0156 22.3029V34.0593C12.0151 34.6004 12.1751 35.1295 12.4755 35.5795C12.7759 36.0296 13.2031 36.3803 13.7029 36.5874C14.2028 36.7944 14.7529 36.8484 15.2835 36.7426C15.8142 36.6367 16.3014 36.3758 16.6836 35.9927L22.0096 30.6666L29.9754 37.6767C30.4708 38.1166 31.1101 38.3599 31.7727 38.3607C32.0607 38.3603 32.3469 38.3149 32.6209 38.2261C33.0728 38.0828 33.4793 37.8235 33.7997 37.474C34.1202 37.1245 34.3434 36.6972 34.4471 36.2345L41.7934 4.17731C41.9053 3.69232 41.8823 3.18596 41.7271 2.71307C41.5718 2.24017 41.2901 1.81877 40.9125 1.4945L40.9123 1.4947ZM2.69278 17.7623C2.68013 17.6776 2.69791 17.5911 2.74296 17.5183C2.78802 17.4454 2.85743 17.3909 2.93888 17.3644L33.1008 5.51501L12.9158 20.0929L3.00528 18.1107C2.92039 18.099 2.84239 18.0576 2.78517 17.9938C2.72795 17.93 2.69522 17.8479 2.69278 17.7623ZM15.0262 34.3357C14.9716 34.3903 14.902 34.4275 14.8262 34.4426C14.7504 34.4576 14.6719 34.4499 14.6005 34.4204C14.5292 34.3908 14.4682 34.3407 14.4252 34.2765C14.3823 34.2123 14.3594 34.1368 14.3594 34.0595V23.9345L20.2467 29.1154L15.0262 34.3357ZM32.1625 35.7111C32.1474 35.7771 32.1155 35.838 32.0697 35.8879C32.024 35.9379 31.9661 35.975 31.9017 35.9958C31.8373 36.0166 31.7686 36.0203 31.7023 36.0066C31.636 35.9928 31.5745 35.9621 31.5236 35.9174L15.0639 21.4328L39.4748 3.8027L32.1625 35.7111Z" fill="white"/>
</svg>
